# Blender v2.83.16 OBJ File: 'cone.blend'
# www.blender.org
mtllib cone.mtl
o Cone
v 0.000003 10.000000 -0.009969
v -0.003812 10.000000 -0.009211
v -0.005535 10.000000 -0.008289
v -0.008286 10.000000 -0.005539
v -0.009207 10.000000 -0.003815
v -0.009774 10.000000 -0.001945
v -0.009966 10.000000 -0.000000
v -0.007046 10.000000 0.007049
v -0.003812 10.000000 0.009210
v 0.000003 10.000000 0.009969
v 0.001948 10.000000 0.009777
v 0.003818 10.000000 0.009210
v 0.009781 10.000000 0.001945
v 0.009972 10.000000 -0.000000
v 0.009781 10.000000 -0.001945
v 0.008292 10.000000 -0.005539
v 0.005542 10.000000 -0.008289
v 0.003818 10.000000 -0.009211
v 0.001948 10.000000 -0.009778
v -0.001942 10.000000 -0.009778
v -0.007046 10.000000 -0.007050
v -0.009774 10.000000 0.001945
v -0.009207 10.000000 0.003815
v -0.008286 10.000000 0.005538
v -0.005535 10.000000 0.008289
v -0.001942 10.000000 0.009777
v 0.005542 10.000000 0.008289
v 0.007052 10.000000 0.007049
v 0.008292 10.000000 0.005538
v 0.009214 10.000000 0.003815
v -0.000003 -10.000000 0.000000
v 0.009214 10.000000 -0.003815
v 0.007052 10.000000 -0.007050
v 0.000003 10.000000 -0.000000
v -0.000003 -10.000000 0.000000
vt 0.250000 0.490000
vt 0.250000 0.250000
vt 0.296822 0.485388
vt 0.341844 0.471731
vt 0.383337 0.449553
vt 0.419706 0.419706
vt 0.449553 0.383337
vt 0.471731 0.341844
vt 0.485388 0.296822
vt 0.490000 0.250000
vt 0.485388 0.203178
vt 0.449553 0.116663
vt 0.419706 0.080294
vt 0.383337 0.050447
vt 0.341844 0.028269
vt 0.296822 0.014612
vt 0.250000 0.010000
vt 0.203178 0.014612
vt 0.158156 0.028269
vt 0.116663 0.050447
vt 0.028269 0.158156
vt 0.014611 0.203179
vt 0.010000 0.250000
vt 0.014612 0.296822
vt 0.028269 0.341844
vt 0.050447 0.383337
vt 0.080295 0.419706
vt 0.116663 0.449553
vt 0.158156 0.471731
vt 0.203179 0.485389
vt 0.750000 0.490000
vt 0.796822 0.485388
vt 0.841844 0.471731
vt 0.883337 0.449553
vt 0.919706 0.419706
vt 0.949553 0.383337
vt 0.971731 0.341844
vt 0.985388 0.296822
vt 0.990000 0.250000
vt 0.985388 0.203178
vt 0.971731 0.158156
vt 0.949553 0.116663
vt 0.919706 0.080294
vt 0.883337 0.050447
vt 0.841844 0.028269
vt 0.796822 0.014612
vt 0.750000 0.010000
vt 0.703178 0.014612
vt 0.658156 0.028269
vt 0.616663 0.050447
vt 0.580294 0.080294
vt 0.550447 0.116663
vt 0.528269 0.158156
vt 0.514611 0.203179
vt 0.510000 0.250000
vt 0.514612 0.296822
vt 0.528269 0.341844
vt 0.550447 0.383337
vt 0.580295 0.419706
vt 0.616663 0.449553
vt 0.658156 0.471731
vt 0.703179 0.485389
vt 0.471731 0.158156
vt 0.080294 0.080294
vt 0.050447 0.116663
vn -0.0980 -0.0005 -0.9952
vn -0.2903 -0.0005 -0.9569
vn -0.4714 -0.0005 -0.8819
vn -0.6344 -0.0005 -0.7730
vn -0.7730 -0.0005 -0.6344
vn -0.8819 -0.0005 -0.4714
vn -0.9569 -0.0005 -0.2903
vn -0.9952 -0.0005 -0.0980
vn -0.9952 -0.0005 0.0980
vn -0.7730 -0.0005 0.6344
vn -0.6344 -0.0005 0.7730
vn -0.4714 -0.0005 0.8819
vn -0.2903 -0.0005 0.9569
vn -0.0980 -0.0005 0.9952
vn 0.0980 -0.0005 0.9952
vn 0.2903 -0.0005 0.9569
vn 0.4714 -0.0005 0.8819
vn 0.9569 -0.0005 0.2903
vn 0.9952 -0.0005 0.0980
vn 0.9952 -0.0005 -0.0980
vn 0.9569 -0.0005 -0.2903
vn 0.8819 -0.0005 -0.4714
vn 0.7730 -0.0005 -0.6344
vn 0.6344 -0.0005 -0.7730
vn 0.4714 -0.0005 -0.8819
vn 0.2903 -0.0005 -0.9569
vn 0.0980 -0.0005 -0.9952
vn 0.0000 1.0000 0.0000
vn 0.9569 0.0005 -0.2903
vn 0.8819 0.0005 -0.4714
vn -0.6344 0.0005 -0.7730
vn -0.7730 0.0005 -0.6344
vn -0.8819 0.0005 -0.4714
usemtl None
s off
f 1/1/1 31/2/1 20/3/1
f 20/3/2 31/2/2 2/4/2
f 2/4/3 31/2/3 3/5/3
f 3/5/4 31/2/4 21/6/4
f 21/6/5 31/2/5 4/7/5
f 4/7/6 31/2/6 5/8/6
f 5/8/7 31/2/7 6/9/7
f 6/9/8 31/2/8 7/10/8
f 7/10/9 31/2/9 22/11/9
f 24/12/10 31/2/10 8/13/10
f 8/13/11 31/2/11 25/14/11
f 25/14/12 31/2/12 9/15/12
f 9/15/13 31/2/13 26/16/13
f 26/16/14 31/2/14 10/17/14
f 10/17/15 31/2/15 11/18/15
f 11/18/16 31/2/16 12/19/16
f 12/19/17 31/2/17 27/20/17
f 30/21/18 31/2/18 13/22/18
f 13/22/19 31/2/19 14/23/19
f 14/23/20 31/2/20 15/24/20
f 15/24/21 31/2/21 32/25/21
f 32/25/22 31/2/22 16/26/22
f 16/26/23 31/2/23 33/27/23
f 33/27/24 31/2/24 17/28/24
f 17/28/25 31/2/25 18/29/25
f 18/29/26 31/2/26 19/30/26
f 19/30/27 31/2/27 1/1/27
f 1/31/28 20/32/28 2/33/28 3/34/28 21/35/28 4/36/28 5/37/28 6/38/28 7/39/28 22/40/28 23/41/28 24/42/28 8/43/28 25/44/28 9/45/28 26/46/28 10/47/28 11/48/28 12/49/28 27/50/28 28/51/28 29/52/28 30/53/28 13/54/28 14/55/28 15/56/28 32/57/28 16/58/28 33/59/28 17/60/28 18/61/28 19/62/28
f 22/11/29 23/63/29 31/2/29
f 23/63/30 24/12/30 31/2/30
f 27/20/31 28/64/31 31/2/31
f 28/64/32 29/65/32 31/2/32
f 29/65/33 30/21/33 31/2/33
l 35 34
